<?xml version="1.0" encoding="UTF-8" standalone="no"?>
<!DOCTYPE svg PUBLIC "-//W3C//DTD SVG 1.1//EN"
 "http://www.w3.org/Graphics/SVG/1.1/DTD/svg11.dtd">
<!-- Generated by graphviz version 2.36.0 (20140111.2315)
 -->
<!-- Title: G Pages: 1 -->
<svg width="296pt" height="706pt"
 viewBox="0.00 0.00 296.00 706.00" xmlns="http://www.w3.org/2000/svg" xmlns:xlink="http://www.w3.org/1999/xlink">
<g id="graph0" class="graph" transform="scale(1 1) rotate(0) translate(4 702)">
<title>G</title>
<polygon fill="white" stroke="none" points="-4,4 -4,-702 292,-702 292,4 -4,4"/>
<g id="clust1" class="cluster"><title>cluster_Global</title>
<path fill="none" stroke="gray" d="M20,-8C20,-8 268,-8 268,-8 274,-8 280,-14 280,-20 280,-20 280,-678 280,-678 280,-684 274,-690 268,-690 268,-690 20,-690 20,-690 14,-690 8,-684 8,-678 8,-678 8,-20 8,-20 8,-14 14,-8 20,-8"/>
<text text-anchor="middle" x="144" y="-677.2" font-family="Times,serif" font-size="11.00" fill="gray">Global</text>
</g>
<g id="clust2" class="cluster"><title>cluster_\Sol</title>
<path fill="none" stroke="gray" d="M168,-230C168,-230 260,-230 260,-230 266,-230 272,-236 272,-242 272,-242 272,-650 272,-650 272,-656 266,-662 260,-662 260,-662 168,-662 168,-662 162,-662 156,-656 156,-650 156,-650 156,-242 156,-242 156,-236 162,-230 168,-230"/>
<text text-anchor="middle" x="214" y="-649.2" font-family="Times,serif" font-size="11.00" fill="gray">Sol</text>
</g>
<g id="clust3" class="cluster"><title>cluster_\Sol\Core</title>
<path fill="none" stroke="gray" d="M176,-238C176,-238 252,-238 252,-238 258,-238 264,-244 264,-250 264,-250 264,-622 264,-622 264,-628 258,-634 252,-634 252,-634 176,-634 176,-634 170,-634 164,-628 164,-622 164,-622 164,-250 164,-250 164,-244 170,-238 176,-238"/>
<text text-anchor="middle" x="214" y="-621.2" font-family="Times,serif" font-size="11.00" fill="gray">Core</text>
</g>
<g id="clust4" class="cluster"><title>cluster_\Framework</title>
<path fill="none" stroke="gray" d="M183,-114C183,-114 245,-114 245,-114 251,-114 257,-120 257,-126 257,-126 257,-210 257,-210 257,-216 251,-222 245,-222 245,-222 183,-222 183,-222 177,-222 171,-216 171,-210 171,-210 171,-126 171,-126 171,-120 177,-114 183,-114"/>
<text text-anchor="middle" x="214" y="-209.2" font-family="Times,serif" font-size="11.00" fill="gray">Framework</text>
</g>
<g id="clust5" class="cluster"><title>cluster_\Framework\Dao</title>
<path fill="none" stroke="gray" d="M191,-122C191,-122 237,-122 237,-122 243,-122 249,-128 249,-134 249,-134 249,-182 249,-182 249,-188 243,-194 237,-194 237,-194 191,-194 191,-194 185,-194 179,-188 179,-182 179,-182 179,-134 179,-134 179,-128 185,-122 191,-122"/>
<text text-anchor="middle" x="214" y="-181.2" font-family="Times,serif" font-size="11.00" fill="gray">Dao</text>
</g>
<!-- \\Sol\\Core\\Connection -->
<g id="node1" class="node"><title>\\Sol\\Core\\Connection</title>
<polygon fill="none" stroke="black" points="256,-606 172,-606 172,-570 256,-570 256,-606"/>
<text text-anchor="middle" x="214" y="-585.2" font-family="Courier,monospace" font-size="11.00">Connection</text>
</g>
<!-- \\Sol\\Core\\Util -->
<g id="node2" class="node"><title>\\Sol\\Core\\Util</title>
<polygon fill="none" stroke="black" points="241,-552 187,-552 187,-516 241,-516 241,-552"/>
<text text-anchor="middle" x="214" y="-531.2" font-family="Courier,monospace" font-size="11.00">Util</text>
</g>
<!-- \\Sol\\Core\\Crypt -->
<g id="node3" class="node"><title>\\Sol\\Core\\Crypt</title>
<polygon fill="none" stroke="black" points="241,-498 187,-498 187,-462 241,-462 241,-498"/>
<text text-anchor="middle" x="214" y="-477.2" font-family="Courier,monospace" font-size="11.00">Crypt</text>
</g>
<!-- \\Sol\\Core\\Router -->
<g id="node4" class="node"><title>\\Sol\\Core\\Router</title>
<polygon fill="none" stroke="black" points="242.5,-444 185.5,-444 185.5,-408 242.5,-408 242.5,-444"/>
<text text-anchor="middle" x="214" y="-423.2" font-family="Courier,monospace" font-size="11.00">Router</text>
</g>
<!-- \\Sol\\Core\\Upload -->
<g id="node5" class="node"><title>\\Sol\\Core\\Upload</title>
<polygon fill="none" stroke="black" points="242.5,-390 185.5,-390 185.5,-354 242.5,-354 242.5,-390"/>
<text text-anchor="middle" x="214" y="-369.2" font-family="Courier,monospace" font-size="11.00">Upload</text>
</g>
<!-- \\Sol\\Core\\Session -->
<g id="node6" class="node"><title>\\Sol\\Core\\Session</title>
<polygon fill="none" stroke="black" points="246,-336 182,-336 182,-300 246,-300 246,-336"/>
<text text-anchor="middle" x="214" y="-315.2" font-family="Courier,monospace" font-size="11.00">Session</text>
</g>
<!-- \\Sol\\Core\\Template -->
<g id="node7" class="node"><title>\\Sol\\Core\\Template</title>
<polygon fill="none" stroke="black" points="249.5,-282 178.5,-282 178.5,-246 249.5,-246 249.5,-282"/>
<text text-anchor="middle" x="214" y="-261.2" font-family="Courier,monospace" font-size="11.00">Template</text>
</g>
<!-- \\Framework\\Dao\\User -->
<g id="node8" class="node"><title>\\Framework\\Dao\\User</title>
<polygon fill="none" stroke="black" points="241,-166 187,-166 187,-130 241,-130 241,-166"/>
<text text-anchor="middle" x="214" y="-145.2" font-family="Courier,monospace" font-size="11.00">User</text>
</g>
<!-- \\Dao -->
<g id="node9" class="node"><title>\\Dao</title>
<polygon fill="none" stroke="black" points="256,-106 172,-106 172,-70 256,-70 256,-106"/>
<text text-anchor="start" x="180" y="-91.2" font-family="Courier,monospace" font-size="11.00">«abstract»</text>
<text text-anchor="start" x="203.5" y="-79.2" font-family="Courier,monospace" font-size="11.00">Dao</text>
</g>
<!-- \\Expression -->
<g id="node10" class="node"><title>\\Expression</title>
<polygon fill="none" stroke="black" points="100,-52 16,-52 16,-16 100,-16 100,-52"/>
<text text-anchor="start" x="24" y="-37.2" font-family="Courier,monospace" font-size="11.00">«abstract»</text>
<text text-anchor="start" x="24" y="-25.2" font-family="Courier,monospace" font-size="11.00">Expression</text>
</g>
<!-- \\Criteria -->
<g id="node11" class="node"><title>\\Criteria</title>
<polygon fill="none" stroke="black" points="249.5,-52 178.5,-52 178.5,-16 249.5,-16 249.5,-52"/>
<text text-anchor="middle" x="214" y="-31.2" font-family="Courier,monospace" font-size="11.00">Criteria</text>
</g>
<!-- \\Criteria&#45;&gt;\\Expression -->
<g id="edge1" class="edge"><title>\\Criteria&#45;&gt;\\Expression</title>
<path fill="none" stroke="black" d="M178.439,-34C158.291,-34 132.505,-34 110.052,-34"/>
<polygon fill="none" stroke="black" points="110.002,-30.5001 100.002,-34 110.002,-37.5001 110.002,-30.5001"/>
</g>
</g>
</svg>
