<?xml version="1.0" encoding="UTF-8" standalone="no"?>
<!DOCTYPE svg PUBLIC "-//W3C//DTD SVG 1.1//EN"
 "http://www.w3.org/Graphics/SVG/1.1/DTD/svg11.dtd">
<!-- Generated by graphviz version 2.36.0 (20140111.2315)
 -->
<!-- Title: G Pages: 1 -->
<svg width="156pt" height="572pt"
 viewBox="0.00 0.00 156.00 572.00" xmlns="http://www.w3.org/2000/svg" xmlns:xlink="http://www.w3.org/1999/xlink">
<g id="graph0" class="graph" transform="scale(1 1) rotate(0) translate(4 568)">
<title>G</title>
<polygon fill="white" stroke="none" points="-4,4 -4,-568 152,-568 152,4 -4,4"/>
<g id="clust1" class="cluster"><title>cluster_Global</title>
<path fill="none" stroke="gray" d="M20,-8C20,-8 128,-8 128,-8 134,-8 140,-14 140,-20 140,-20 140,-544 140,-544 140,-550 134,-556 128,-556 128,-556 20,-556 20,-556 14,-556 8,-550 8,-544 8,-544 8,-20 8,-20 8,-14 14,-8 20,-8"/>
<text text-anchor="middle" x="74" y="-543.2" font-family="Times,serif" font-size="11.00" fill="gray">Global</text>
</g>
<g id="clust2" class="cluster"><title>cluster_\Sol</title>
<path fill="none" stroke="gray" d="M28,-16C28,-16 120,-16 120,-16 126,-16 132,-22 132,-28 132,-28 132,-516 132,-516 132,-522 126,-528 120,-528 120,-528 28,-528 28,-528 22,-528 16,-522 16,-516 16,-516 16,-28 16,-28 16,-22 22,-16 28,-16"/>
<text text-anchor="middle" x="74" y="-515.2" font-family="Times,serif" font-size="11.00" fill="gray">Sol</text>
</g>
<g id="clust3" class="cluster"><title>cluster_\Sol\Core</title>
<path fill="none" stroke="gray" d="M36,-104C36,-104 112,-104 112,-104 118,-104 124,-110 124,-116 124,-116 124,-488 124,-488 124,-494 118,-500 112,-500 112,-500 36,-500 36,-500 30,-500 24,-494 24,-488 24,-488 24,-116 24,-116 24,-110 30,-104 36,-104"/>
<text text-anchor="middle" x="74" y="-487.2" font-family="Times,serif" font-size="11.00" fill="gray">Core</text>
</g>
<g id="clust4" class="cluster"><title>cluster_\Sol\Dao</title>
<path fill="none" stroke="gray" d="M51,-24C51,-24 97,-24 97,-24 103,-24 109,-30 109,-36 109,-36 109,-84 109,-84 109,-90 103,-96 97,-96 97,-96 51,-96 51,-96 45,-96 39,-90 39,-84 39,-84 39,-36 39,-36 39,-30 45,-24 51,-24"/>
<text text-anchor="middle" x="74" y="-83.2" font-family="Times,serif" font-size="11.00" fill="gray">Dao</text>
</g>
<!-- \\Sol\\Core\\Session -->
<g id="node1" class="node"><title>\\Sol\\Core\\Session</title>
<polygon fill="none" stroke="black" points="106,-472 42,-472 42,-436 106,-436 106,-472"/>
<text text-anchor="middle" x="74" y="-451.2" font-family="Courier,monospace" font-size="11.00">Session</text>
</g>
<!-- \\Sol\\Core\\Upload -->
<g id="node2" class="node"><title>\\Sol\\Core\\Upload</title>
<polygon fill="none" stroke="black" points="102.5,-418 45.5,-418 45.5,-382 102.5,-382 102.5,-418"/>
<text text-anchor="middle" x="74" y="-397.2" font-family="Courier,monospace" font-size="11.00">Upload</text>
</g>
<!-- \\Sol\\Core\\Template -->
<g id="node3" class="node"><title>\\Sol\\Core\\Template</title>
<polygon fill="none" stroke="black" points="109.5,-364 38.5,-364 38.5,-328 109.5,-328 109.5,-364"/>
<text text-anchor="middle" x="74" y="-343.2" font-family="Courier,monospace" font-size="11.00">Template</text>
</g>
<!-- \\Sol\\Core\\Crypt -->
<g id="node4" class="node"><title>\\Sol\\Core\\Crypt</title>
<polygon fill="none" stroke="black" points="101,-310 47,-310 47,-274 101,-274 101,-310"/>
<text text-anchor="middle" x="74" y="-289.2" font-family="Courier,monospace" font-size="11.00">Crypt</text>
</g>
<!-- \\Sol\\Core\\Router -->
<g id="node5" class="node"><title>\\Sol\\Core\\Router</title>
<polygon fill="none" stroke="black" points="102.5,-256 45.5,-256 45.5,-220 102.5,-220 102.5,-256"/>
<text text-anchor="middle" x="74" y="-235.2" font-family="Courier,monospace" font-size="11.00">Router</text>
</g>
<!-- \\Sol\\Core\\Connection -->
<g id="node6" class="node"><title>\\Sol\\Core\\Connection</title>
<polygon fill="none" stroke="black" points="116,-202 32,-202 32,-166 116,-166 116,-202"/>
<text text-anchor="middle" x="74" y="-181.2" font-family="Courier,monospace" font-size="11.00">Connection</text>
</g>
<!-- \\Sol\\Core\\Util -->
<g id="node7" class="node"><title>\\Sol\\Core\\Util</title>
<polygon fill="none" stroke="black" points="101,-148 47,-148 47,-112 101,-112 101,-148"/>
<text text-anchor="middle" x="74" y="-127.2" font-family="Courier,monospace" font-size="11.00">Util</text>
</g>
<!-- \\Sol\\Dao\\User -->
<g id="node8" class="node"><title>\\Sol\\Dao\\User</title>
<polygon fill="none" stroke="black" points="101,-68 47,-68 47,-32 101,-32 101,-68"/>
<text text-anchor="middle" x="74" y="-47.2" font-family="Courier,monospace" font-size="11.00">User</text>
</g>
</g>
</svg>
