<?xml version="1.0" encoding="UTF-8" standalone="no"?>
<!DOCTYPE svg PUBLIC "-//W3C//DTD SVG 1.1//EN"
 "http://www.w3.org/Graphics/SVG/1.1/DTD/svg11.dtd">
<!-- Generated by graphviz version 2.38.0 (20140413.2041)
 -->
<!-- Title: G Pages: 1 -->
<svg width="140pt" height="340pt"
 viewBox="0.00 0.00 140.00 340.00" xmlns="http://www.w3.org/2000/svg" xmlns:xlink="http://www.w3.org/1999/xlink">
<g id="graph0" class="graph" transform="scale(1 1) rotate(0) translate(4 336)">
<title>G</title>
<polygon fill="white" stroke="none" points="-4,4 -4,-336 136,-336 136,4 -4,4"/>
<g id="clust1" class="cluster"><title>cluster_Global</title>
<path fill="none" stroke="gray" d="M20,-8C20,-8 112,-8 112,-8 118,-8 124,-14 124,-20 124,-20 124,-312 124,-312 124,-318 118,-324 112,-324 112,-324 20,-324 20,-324 14,-324 8,-318 8,-312 8,-312 8,-20 8,-20 8,-14 14,-8 20,-8"/>
<text text-anchor="middle" x="66" y="-311.2" font-family="Times,serif" font-size="11.00" fill="gray">Global</text>
</g>
<g id="clust2" class="cluster"><title>cluster_\Core</title>
<path fill="none" stroke="gray" d="M28,-116C28,-116 104,-116 104,-116 110,-116 116,-122 116,-128 116,-128 116,-284 116,-284 116,-290 110,-296 104,-296 104,-296 28,-296 28,-296 22,-296 16,-290 16,-284 16,-284 16,-128 16,-128 16,-122 22,-116 28,-116"/>
<text text-anchor="middle" x="66" y="-283.2" font-family="Times,serif" font-size="11.00" fill="gray">Core</text>
</g>
<!-- \\Core\\Upload -->
<g id="node1" class="node"><title>\\Core\\Upload</title>
<polygon fill="none" stroke="black" points="94.5,-268 37.5,-268 37.5,-232 94.5,-232 94.5,-268"/>
<text text-anchor="middle" x="66" y="-247.2" font-family="Courier,monospace" font-size="11.00">Upload</text>
</g>
<!-- \\Core\\Connection -->
<g id="node2" class="node"><title>\\Core\\Connection</title>
<polygon fill="none" stroke="black" points="108,-214 24,-214 24,-178 108,-178 108,-214"/>
<text text-anchor="middle" x="66" y="-193.2" font-family="Courier,monospace" font-size="11.00">Connection</text>
</g>
<!-- \\Core\\Session -->
<g id="node3" class="node"><title>\\Core\\Session</title>
<polygon fill="none" stroke="black" points="98,-160 34,-160 34,-124 98,-124 98,-160"/>
<text text-anchor="middle" x="66" y="-139.2" font-family="Courier,monospace" font-size="11.00">Session</text>
</g>
<!-- \\Util -->
<g id="node4" class="node"><title>\\Util</title>
<polygon fill="none" stroke="black" points="93,-106 39,-106 39,-70 93,-70 93,-106"/>
<text text-anchor="middle" x="66" y="-85.2" font-family="Courier,monospace" font-size="11.00">Util</text>
</g>
<!-- \\Crypt -->
<g id="node5" class="node"><title>\\Crypt</title>
<polygon fill="none" stroke="black" points="93,-52 39,-52 39,-16 93,-16 93,-52"/>
<text text-anchor="middle" x="66" y="-31.2" font-family="Courier,monospace" font-size="11.00">Crypt</text>
</g>
</g>
</svg>
